<?xml version="1.0" standalone="no"?>
<svg xmlns="http://www.w3.org/2000/svg" width="403" height="820"><g class="legend" id="id35" style="font: 10px sans-serif;" transform="translate(0,780)"><rect width="18" height="18" x="0" style="fill: rgb(102, 102, 102);"/><text y="9" dy=".35em" text-anchor="start" x="24">k__Bacteria;p__Proteobacteria;c__Gammaproteobacteria;__</text></g><g class="legend" id="id36" style="font: 10px sans-serif;" transform="translate(0,760)"><rect width="18" height="18" x="0" style="fill: rgb(191, 91, 23);"/><text y="9" dy=".35em" text-anchor="start" x="24">k__Bacteria;p__Bacteroidetes;c__Cytophagia;o__Cytophagales</text></g><g class="legend" id="id37" style="font: 10px sans-serif;" transform="translate(0,740)"><rect width="18" height="18" x="0" style="fill: rgb(240, 2, 127);"/><text y="9" dy=".35em" text-anchor="start" x="24">k__Bacteria;p__Proteobacteria;c__Alphaproteobacteria;o__Rickettsiales</text></g><g class="legend" id="id38" style="font: 10px sans-serif;" transform="translate(0,720)"><rect width="18" height="18" x="0" style="fill: rgb(56, 108, 176);"/><text y="9" dy=".35em" text-anchor="start" x="24">k__Bacteria;p__Proteobacteria;c__Alphaproteobacteria;o__Sphingomonadales</text></g><g class="legend" id="id39" style="font: 10px sans-serif;" transform="translate(0,700)"><rect width="18" height="18" x="0" style="fill: rgb(255, 255, 153);"/><text y="9" dy=".35em" text-anchor="start" x="24">k__Bacteria;p__Acidobacteria;c__Sva0725;o__Sva0725</text></g><g class="legend" id="id32" style="font: 10px sans-serif;" transform="translate(0,680)"><rect width="18" height="18" x="0" style="fill: rgb(253, 192, 134);"/><text y="9" dy=".35em" text-anchor="start" x="24">k__Bacteria;p__Proteobacteria;c__Alphaproteobacteria;o__Rhizobiales</text></g><g class="legend" id="id33" style="font: 10px sans-serif;" transform="translate(0,660)"><rect width="18" height="18" x="0" style="fill: rgb(190, 174, 212);"/><text y="9" dy=".35em" text-anchor="start" x="24">Unassigned;__;__;__</text></g><g class="legend" id="id34" style="font: 10px sans-serif;" transform="translate(0,640)"><rect width="18" height="18" x="0" style="fill: rgb(127, 201, 127);"/><text y="9" dy=".35em" text-anchor="start" x="24">k__Bacteria;p__Bacteroidetes;__;__</text></g><g class="legend" id="id31" style="font: 10px sans-serif;" transform="translate(0,620)"><rect width="18" height="18" x="0" style="fill: rgb(102, 102, 102);"/><text y="9" dy=".35em" text-anchor="start" x="24">k__Bacteria;p__Proteobacteria;c__Betaproteobacteria;o__Neisseriales</text></g><g class="legend" id="id30" style="font: 10px sans-serif;" transform="translate(0,600)"><rect width="18" height="18" x="0" style="fill: rgb(191, 91, 23);"/><text y="9" dy=".35em" text-anchor="start" x="24">k__Bacteria;p__Proteobacteria;c__Gammaproteobacteria;o__Pseudomonadales</text></g><g class="legend" id="id28" style="font: 10px sans-serif;" transform="translate(0,580)"><rect width="18" height="18" x="0" style="fill: rgb(240, 2, 127);"/><text y="9" dy=".35em" text-anchor="start" x="24">k__Bacteria;p__Firmicutes;c__Bacilli;o__Gemellales</text></g><g class="legend" id="id29" style="font: 10px sans-serif;" transform="translate(0,560)"><rect width="18" height="18" x="0" style="fill: rgb(56, 108, 176);"/><text y="9" dy=".35em" text-anchor="start" x="24">k__Bacteria;p__Proteobacteria;c__Epsilonproteobacteria;o__Campylobacterales</text></g><g class="legend" id="id26" style="font: 10px sans-serif;" transform="translate(0,540)"><rect width="18" height="18" x="0" style="fill: rgb(255, 255, 153);"/><text y="9" dy=".35em" text-anchor="start" x="24">k__Bacteria;p__Firmicutes;c__Clostridia;o__SHA-98</text></g><g class="legend" id="id25" style="font: 10px sans-serif;" transform="translate(0,520)"><rect width="18" height="18" x="0" style="fill: rgb(253, 192, 134);"/><text y="9" dy=".35em" text-anchor="start" x="24">k__Bacteria;p__Firmicutes;c__Bacilli;o__Bacillales</text></g><g class="legend" id="id23" style="font: 10px sans-serif;" transform="translate(0,500)"><rect width="18" height="18" x="0" style="fill: rgb(190, 174, 212);"/><text y="9" dy=".35em" text-anchor="start" x="24">k__Bacteria;p__Cyanobacteria;c__Chloroplast;o__Streptophyta</text></g><g class="legend" id="id27" style="font: 10px sans-serif;" transform="translate(0,480)"><rect width="18" height="18" x="0" style="fill: rgb(127, 201, 127);"/><text y="9" dy=".35em" text-anchor="start" x="24">k__Bacteria;p__Lentisphaerae;c__[Lentisphaeria];o__Victivallales</text></g><g class="legend" id="id19" style="font: 10px sans-serif;" transform="translate(0,460)"><rect width="18" height="18" x="0" style="fill: rgb(102, 102, 102);"/><text y="9" dy=".35em" text-anchor="start" x="24">k__Bacteria;p__Proteobacteria;c__Gammaproteobacteria;o__Aeromonadales</text></g><g class="legend" id="id21" style="font: 10px sans-serif;" transform="translate(0,440)"><rect width="18" height="18" x="0" style="fill: rgb(191, 91, 23);"/><text y="9" dy=".35em" text-anchor="start" x="24">k__Bacteria;p__Firmicutes;c__Bacilli;o__Turicibacterales</text></g><g class="legend" id="id24" style="font: 10px sans-serif;" transform="translate(0,420)"><rect width="18" height="18" x="0" style="fill: rgb(240, 2, 127);"/><text y="9" dy=".35em" text-anchor="start" x="24">k__Bacteria;p__Actinobacteria;c__Actinobacteria;o__Actinomycetales</text></g><g class="legend" id="id20" style="font: 10px sans-serif;" transform="translate(0,400)"><rect width="18" height="18" x="0" style="fill: rgb(56, 108, 176);"/><text y="9" dy=".35em" text-anchor="start" x="24">k__Bacteria;p__Fusobacteria;c__Fusobacteriia;o__Fusobacteriales</text></g><g class="legend" id="id18" style="font: 10px sans-serif;" transform="translate(0,380)"><rect width="18" height="18" x="0" style="fill: rgb(255, 255, 153);"/><text y="9" dy=".35em" text-anchor="start" x="24">k__Bacteria;p__Proteobacteria;__;__</text></g><g class="legend" id="id22" style="font: 10px sans-serif;" transform="translate(0,360)"><rect width="18" height="18" x="0" style="fill: rgb(253, 192, 134);"/><text y="9" dy=".35em" text-anchor="start" x="24">k__Bacteria;p__Tenericutes;c__Mollicutes;o__RF39</text></g><g class="legend" id="id15" style="font: 10px sans-serif;" transform="translate(0,340)"><rect width="18" height="18" x="0" style="fill: rgb(190, 174, 212);"/><text y="9" dy=".35em" text-anchor="start" x="24">k__Bacteria;__;__;__</text></g><g class="legend" id="id14" style="font: 10px sans-serif;" transform="translate(0,320)"><rect width="18" height="18" x="0" style="fill: rgb(127, 201, 127);"/><text y="9" dy=".35em" text-anchor="start" x="24">k__Bacteria;p__Proteobacteria;c__Gammaproteobacteria;o__Pasteurellales</text></g><g class="legend" id="id17" style="font: 10px sans-serif;" transform="translate(0,300)"><rect width="18" height="18" x="0" style="fill: rgb(102, 102, 102);"/><text y="9" dy=".35em" text-anchor="start" x="24">k__Bacteria;p__Firmicutes;__;__</text></g><g class="legend" id="id16" style="font: 10px sans-serif;" transform="translate(0,280)"><rect width="18" height="18" x="0" style="fill: rgb(191, 91, 23);"/><text y="9" dy=".35em" text-anchor="start" x="24">k__Bacteria;p__Cyanobacteria;c__4C0d-2;o__YS2</text></g><g class="legend" id="id13" style="font: 10px sans-serif;" transform="translate(0,260)"><rect width="18" height="18" x="0" style="fill: rgb(240, 2, 127);"/><text y="9" dy=".35em" text-anchor="start" x="24">k__Bacteria;p__Tenericutes;c__RF3;o__ML615J-28</text></g><g class="legend" id="id12" style="font: 10px sans-serif;" transform="translate(0,240)"><rect width="18" height="18" x="0" style="fill: rgb(56, 108, 176);"/><text y="9" dy=".35em" text-anchor="start" x="24">k__Archaea;p__Euryarchaeota;c__Methanobacteria;o__Methanobacteriales</text></g><g class="legend" id="id11" style="font: 10px sans-serif;" transform="translate(0,220)"><rect width="18" height="18" x="0" style="fill: rgb(255, 255, 153);"/><text y="9" dy=".35em" text-anchor="start" x="24">k__Bacteria;p__Synergistetes;c__Synergistia;o__Synergistales</text></g><g class="legend" id="id10" style="font: 10px sans-serif;" transform="translate(0,200)"><rect width="18" height="18" x="0" style="fill: rgb(253, 192, 134);"/><text y="9" dy=".35em" text-anchor="start" x="24">k__Bacteria;p__Proteobacteria;c__Alphaproteobacteria;o__RF32</text></g><g class="legend" id="id9" style="font: 10px sans-serif;" transform="translate(0,180)"><rect width="18" height="18" x="0" style="fill: rgb(190, 174, 212);"/><text y="9" dy=".35em" text-anchor="start" x="24">k__Bacteria;p__Actinobacteria;c__Coriobacteriia;o__Coriobacteriales</text></g><g class="legend" id="id7" style="font: 10px sans-serif;" transform="translate(0,160)"><rect width="18" height="18" x="0" style="fill: rgb(127, 201, 127);"/><text y="9" dy=".35em" text-anchor="start" x="24">k__Bacteria;p__Proteobacteria;c__Deltaproteobacteria;o__Desulfovibrionales</text></g><g class="legend" id="id8" style="font: 10px sans-serif;" transform="translate(0,140)"><rect width="18" height="18" x="0" style="fill: rgb(102, 102, 102);"/><text y="9" dy=".35em" text-anchor="start" x="24">k__Bacteria;p__Actinobacteria;c__Actinobacteria;o__Bifidobacteriales</text></g><g class="legend" id="id4" style="font: 10px sans-serif;" transform="translate(0,120)"><rect width="18" height="18" x="0" style="fill: rgb(191, 91, 23);"/><text y="9" dy=".35em" text-anchor="start" x="24">k__Bacteria;p__Proteobacteria;c__Betaproteobacteria;o__Burkholderiales</text></g><g class="legend" id="id6" style="font: 10px sans-serif;" transform="translate(0,100)"><rect width="18" height="18" x="0" style="fill: rgb(240, 2, 127);"/><text y="9" dy=".35em" text-anchor="start" x="24">k__Bacteria;p__Firmicutes;c__Bacilli;o__Lactobacillales</text></g><g class="legend" id="id5" style="font: 10px sans-serif;" transform="translate(0,80)"><rect width="18" height="18" x="0" style="fill: rgb(56, 108, 176);"/><text y="9" dy=".35em" text-anchor="start" x="24">k__Bacteria;p__Firmicutes;c__Erysipelotrichi;o__Erysipelotrichales</text></g><g class="legend" id="id1" style="font: 10px sans-serif;" transform="translate(0,60)"><rect width="18" height="18" x="0" style="fill: rgb(255, 255, 153);"/><text y="9" dy=".35em" text-anchor="start" x="24">k__Bacteria;p__Proteobacteria;c__Gammaproteobacteria;o__Enterobacteriales</text></g><g class="legend" id="id3" style="font: 10px sans-serif;" transform="translate(0,40)"><rect width="18" height="18" x="0" style="fill: rgb(253, 192, 134);"/><text y="9" dy=".35em" text-anchor="start" x="24">k__Bacteria;p__Verrucomicrobia;c__Verrucomicrobiae;o__Verrucomicrobiales</text></g><g class="legend" id="id2" style="font: 10px sans-serif;" transform="translate(0,20)"><rect width="18" height="18" x="0" style="fill: rgb(190, 174, 212);"/><text y="9" dy=".35em" text-anchor="start" x="24">k__Bacteria;p__Firmicutes;c__Clostridia;o__Clostridiales</text></g><g class="legend" id="id0" style="font: 10px sans-serif;" transform="translate(0,0)"><rect width="18" height="18" x="0" style="fill: rgb(127, 201, 127);"/><text y="9" dy=".35em" text-anchor="start" x="24">k__Bacteria;p__Bacteroidetes;c__Bacteroidia;o__Bacteroidales</text></g></svg>