<svg class="marks" width="626.5553333333334" height="329.7776666666667" viewBox="0 0 626.5553333333334 329.7776666666667" version="1.1" xmlns="http://www.w3.org/2000/svg" xmlns:xlink="http://www.w3.org/1999/xlink"><g transform="translate(43,5)"><g class="mark-group role-frame root"><g transform="translate(0,0)"><path class="background" d="M0,0h579.5553333333334v289.7776666666667h-579.5553333333334Z" style="fill: none;"></path><g><g class="mark-group role-axis"><g transform="translate(0.5,290.2776666666667)"><path class="background" d="M0,0h0v0h0Z" style="pointer-events: none; fill: none;"></path><g><g class="mark-rule role-axis-tick" style="pointer-events: none;"><line transform="translate(35,0)" x2="0" y2="5" style="fill: none; stroke: #888; stroke-width: 1; opacity: 1;"></line><line transform="translate(114,0)" x2="0" y2="5" style="fill: none; stroke: #888; stroke-width: 1; opacity: 1;"></line><line transform="translate(193,0)" x2="0" y2="5" style="fill: none; stroke: #888; stroke-width: 1; opacity: 1;"></line><line transform="translate(272,0)" x2="0" y2="5" style="fill: none; stroke: #888; stroke-width: 1; opacity: 1;"></line><line transform="translate(351,0)" x2="0" y2="5" style="fill: none; stroke: #888; stroke-width: 1; opacity: 1;"></line><line transform="translate(430,0)" x2="0" y2="5" style="fill: none; stroke: #888; stroke-width: 1; opacity: 1;"></line><line transform="translate(509,0)" x2="0" y2="5" style="fill: none; stroke: #888; stroke-width: 1; opacity: 1;"></line></g><g class="mark-text role-axis-label" style="pointer-events: none;"><text text-anchor="middle" transform="translate(35.08266029068387,15)" style="font-family: sans-serif; font-size: 10px; fill: #000; opacity: 1;">-6</text><text text-anchor="middle" transform="translate(114.0082856935543,15)" style="font-family: sans-serif; font-size: 10px; fill: #000; opacity: 1;">-4</text><text text-anchor="middle" transform="translate(192.9339110964247,15)" style="font-family: sans-serif; font-size: 10px; fill: #000; opacity: 1;">-2</text><text text-anchor="middle" transform="translate(271.85953649929513,15)" style="font-family: sans-serif; font-size: 10px; fill: #000; opacity: 1;">0</text><text text-anchor="middle" transform="translate(350.78516190216556,15)" style="font-family: sans-serif; font-size: 10px; fill: #000; opacity: 1;">2</text><text text-anchor="middle" transform="translate(429.71078730503604,15)" style="font-family: sans-serif; font-size: 10px; fill: #000; opacity: 1;">4</text><text text-anchor="middle" transform="translate(508.6364127079064,15)" style="font-family: sans-serif; font-size: 10px; fill: #000; opacity: 1;">6</text></g><g class="mark-rule role-axis-domain" style="pointer-events: none;"><line transform="translate(0,0)" x2="579.5553333333334" y2="0" style="fill: none; stroke: #888; stroke-width: 1; opacity: 1;"></line></g><g class="mark-text role-axis-title" style="pointer-events: none;"><text text-anchor="middle" transform="translate(289.7776666666667,31)" style="font-family: sans-serif; font-size: 11px; font-weight: bold; fill: #000; opacity: 1;">clr</text></g></g></g></g><g class="mark-group role-axis"><g transform="translate(0.5,0.5)"><path class="background" d="M0,0h0v0h0Z" style="pointer-events: none; fill: none;"></path><g><g class="mark-rule role-axis-tick" style="pointer-events: none;"><line transform="translate(0,290)" x2="-5" y2="0" style="fill: none; stroke: #888; stroke-width: 1; opacity: 1;"></line><line transform="translate(0,254)" x2="-5" y2="0" style="fill: none; stroke: #888; stroke-width: 1; opacity: 1;"></line><line transform="translate(0,218)" x2="-5" y2="0" style="fill: none; stroke: #888; stroke-width: 1; opacity: 1;"></line><line transform="translate(0,182)" x2="-5" y2="0" style="fill: none; stroke: #888; stroke-width: 1; opacity: 1;"></line><line transform="translate(0,146)" x2="-5" y2="0" style="fill: none; stroke: #888; stroke-width: 1; opacity: 1;"></line><line transform="translate(0,110)" x2="-5" y2="0" style="fill: none; stroke: #888; stroke-width: 1; opacity: 1;"></line><line transform="translate(0,74)" x2="-5" y2="0" style="fill: none; stroke: #888; stroke-width: 1; opacity: 1;"></line><line transform="translate(0,38)" x2="-5" y2="0" style="fill: none; stroke: #888; stroke-width: 1; opacity: 1;"></line><line transform="translate(0,2)" x2="-5" y2="0" style="fill: none; stroke: #888; stroke-width: 1; opacity: 1;"></line></g><g class="mark-text role-axis-label" style="pointer-events: none;"><text text-anchor="end" transform="translate(-7,292.7776666666667)" style="font-family: sans-serif; font-size: 10px; fill: #000; opacity: 1;">0</text><text text-anchor="end" transform="translate(-7,256.78044099378883)" style="font-family: sans-serif; font-size: 10px; fill: #000; opacity: 1;">20</text><text text-anchor="end" transform="translate(-7,220.78321532091098)" style="font-family: sans-serif; font-size: 10px; fill: #000; opacity: 1;">40</text><text text-anchor="end" transform="translate(-7,184.78598964803314)" style="font-family: sans-serif; font-size: 10px; fill: #000; opacity: 1;">60</text><text text-anchor="end" transform="translate(-7,148.7887639751553)" style="font-family: sans-serif; font-size: 10px; fill: #000; opacity: 1;">80</text><text text-anchor="end" transform="translate(-7,112.79153830227744)" style="font-family: sans-serif; font-size: 10px; fill: #000; opacity: 1;">100</text><text text-anchor="end" transform="translate(-7,76.7943126293996)" style="font-family: sans-serif; font-size: 10px; fill: #000; opacity: 1;">120</text><text text-anchor="end" transform="translate(-7,40.79708695652175)" style="font-family: sans-serif; font-size: 10px; fill: #000; opacity: 1;">140</text><text text-anchor="end" transform="translate(-7,4.7998612836439065)" style="font-family: sans-serif; font-size: 10px; fill: #000; opacity: 1;">160</text></g><g class="mark-rule role-axis-domain" style="pointer-events: none;"><line transform="translate(0,289.7776666666667)" x2="0" y2="-289.7776666666667" style="fill: none; stroke: #888; stroke-width: 1; opacity: 1;"></line></g><g class="mark-text role-axis-title" style="pointer-events: none;"><text text-anchor="middle" transform="translate(-30,144.88883333333334) rotate(-90) translate(0,-2)" style="font-family: sans-serif; font-size: 11px; font-weight: bold; fill: #000; opacity: 1;">W</text></g></g></g></g><g class="mark-symbol role-mark"><path transform="translate(399.16672570758396,286.1779440993789)" d="M4,0A4,4,0,1,1,-4,0A4,4,0,1,1,4,0" style="fill: black; opacity: 0.3;"></path><path transform="translate(257.4968145250402,289.7776666666667)" d="M4,0A4,4,0,1,1,-4,0A4,4,0,1,1,4,0" style="fill: black; opacity: 0.3;"></path><path transform="translate(339.7043308991861,273.57891511387163)" d="M4,0A4,4,0,1,1,-4,0A4,4,0,1,1,4,0" style="fill: black; opacity: 0.3;"></path><path transform="translate(259.4308484207396,280.7783602484472)" d="M4,0A4,4,0,1,1,-4,0A4,4,0,1,1,4,0" style="fill: black; opacity: 0.3;"></path><path transform="translate(264.8152369988325,278.9784989648033)" d="M4,0A4,4,0,1,1,-4,0A4,4,0,1,1,4,0" style="fill: black; opacity: 0.3;"></path><path transform="translate(364.28795735941634,273.57891511387163)" d="M4,0A4,4,0,1,1,-4,0A4,4,0,1,1,4,0" style="fill: black; opacity: 0.3;"></path><path transform="translate(245.3395395519916,277.17863768115944)" d="M4,0A4,4,0,1,1,-4,0A4,4,0,1,1,4,0" style="fill: black; opacity: 0.3;"></path><path transform="translate(305.9985027426193,284.378082815735)" d="M4,0A4,4,0,1,1,-4,0A4,4,0,1,1,4,0" style="fill: black; opacity: 0.3;"></path><path transform="translate(191.20810304069877,286.1779440993789)" d="M4,0A4,4,0,1,1,-4,0A4,4,0,1,1,4,0" style="fill: black; opacity: 0.3;"></path><path transform="translate(242.50135361631027,287.97780538302277)" d="M4,0A4,4,0,1,1,-4,0A4,4,0,1,1,4,0" style="fill: black; opacity: 0.3;"></path><path transform="translate(308.0470110830415,282.5782215320911)" d="M4,0A4,4,0,1,1,-4,0A4,4,0,1,1,4,0" style="fill: black; opacity: 0.3;"></path><path transform="translate(308.9310980415771,284.378082815735)" d="M4,0A4,4,0,1,1,-4,0A4,4,0,1,1,4,0" style="fill: black; opacity: 0.3;"></path><path transform="translate(303.1883842602226,284.378082815735)" d="M4,0A4,4,0,1,1,-4,0A4,4,0,1,1,4,0" style="fill: black; opacity: 0.3;"></path><path transform="translate(315.76948238181836,275.37877639751554)" d="M4,0A4,4,0,1,1,-4,0A4,4,0,1,1,4,0" style="fill: black; opacity: 0.3;"></path><path transform="translate(171.45398068695118,282.5782215320911)" d="M4,0A4,4,0,1,1,-4,0A4,4,0,1,1,4,0" style="fill: black; opacity: 0.3;"></path><path transform="translate(308.5133145652894,271.7790538302278)" d="M4,0A4,4,0,1,1,-4,0A4,4,0,1,1,4,0" style="fill: black; opacity: 0.3;"></path><path transform="translate(281.1748229996491,284.378082815735)" d="M4,0A4,4,0,1,1,-4,0A4,4,0,1,1,4,0" style="fill: black; opacity: 0.3;"></path><path transform="translate(254.6573174453373,284.378082815735)" d="M4,0A4,4,0,1,1,-4,0A4,4,0,1,1,4,0" style="fill: black; opacity: 0.3;"></path><path transform="translate(229.46130282874765,284.378082815735)" d="M4,0A4,4,0,1,1,-4,0A4,4,0,1,1,4,0" style="fill: black; opacity: 0.3;"></path><path transform="translate(292.91090630556255,284.378082815735)" d="M4,0A4,4,0,1,1,-4,0A4,4,0,1,1,4,0" style="fill: black; opacity: 0.3;"></path><path transform="translate(280.6934737220765,284.378082815735)" d="M4,0A4,4,0,1,1,-4,0A4,4,0,1,1,4,0" style="fill: black; opacity: 0.3;"></path><path transform="translate(263.016506637034,280.7783602484472)" d="M4,0A4,4,0,1,1,-4,0A4,4,0,1,1,4,0" style="fill: black; opacity: 0.3;"></path><path transform="translate(179.94345246172475,268.17933126293997)" d="M4,0A4,4,0,1,1,-4,0A4,4,0,1,1,4,0" style="fill: black; opacity: 0.3;"></path><path transform="translate(265.0931625091755,278.9784989648033)" d="M4,0A4,4,0,1,1,-4,0A4,4,0,1,1,4,0" style="fill: black; opacity: 0.3;"></path><path transform="translate(211.98945130604758,275.37877639751554)" d="M4,0A4,4,0,1,1,-4,0A4,4,0,1,1,4,0" style="fill: black; opacity: 0.3;"></path><path transform="translate(289.2272816877653,286.1779440993789)" d="M4,0A4,4,0,1,1,-4,0A4,4,0,1,1,4,0" style="fill: black; opacity: 0.3;"></path><path transform="translate(177.05900288592997,287.97780538302277)" d="M4,0A4,4,0,1,1,-4,0A4,4,0,1,1,4,0" style="fill: black; opacity: 0.3;"></path><path transform="translate(293.8278049844497,277.17863768115944)" d="M4,0A4,4,0,1,1,-4,0A4,4,0,1,1,4,0" style="fill: black; opacity: 0.3;"></path><path transform="translate(338.0833657643406,264.57960869565215)" d="M4,0A4,4,0,1,1,-4,0A4,4,0,1,1,4,0" style="fill: black; opacity: 0.3;"></path><path transform="translate(240.9007932522863,287.97780538302277)" d="M4,0A4,4,0,1,1,-4,0A4,4,0,1,1,4,0" style="fill: black; opacity: 0.3;"></path><path transform="translate(315.1889794739024,287.97780538302277)" d="M4,0A4,4,0,1,1,-4,0A4,4,0,1,1,4,0" style="fill: black; opacity: 0.3;"></path><path transform="translate(205.73156987372226,266.37946997929606)" d="M4,0A4,4,0,1,1,-4,0A4,4,0,1,1,4,0" style="fill: black; opacity: 0.3;"></path><path transform="translate(239.13787310467026,287.97780538302277)" d="M4,0A4,4,0,1,1,-4,0A4,4,0,1,1,4,0" style="fill: black; opacity: 0.3;"></path><path transform="translate(327.04135925230975,280.7783602484472)" d="M4,0A4,4,0,1,1,-4,0A4,4,0,1,1,4,0" style="fill: black; opacity: 0.3;"></path><path transform="translate(276.69327531751657,286.1779440993789)" d="M4,0A4,4,0,1,1,-4,0A4,4,0,1,1,4,0" style="fill: black; opacity: 0.3;"></path><path transform="translate(294.370242402559,284.378082815735)" d="M4,0A4,4,0,1,1,-4,0A4,4,0,1,1,4,0" style="fill: black; opacity: 0.3;"></path><path transform="translate(213.4740517015505,286.1779440993789)" d="M4,0A4,4,0,1,1,-4,0A4,4,0,1,1,4,0" style="fill: black; opacity: 0.3;"></path><path transform="translate(277.85528778639514,284.378082815735)" d="M4,0A4,4,0,1,1,-4,0A4,4,0,1,1,4,0" style="fill: black; opacity: 0.3;"></path><path transform="translate(278.64496538165423,286.1779440993789)" d="M4,0A4,4,0,1,1,-4,0A4,4,0,1,1,4,0" style="fill: black; opacity: 0.3;"></path><path transform="translate(350.23978836726036,275.37877639751554)" d="M4,0A4,4,0,1,1,-4,0A4,4,0,1,1,4,0" style="fill: black; opacity: 0.3;"></path><path transform="translate(176.88529511458646,282.5782215320911)" d="M4,0A4,4,0,1,1,-4,0A4,4,0,1,1,4,0" style="fill: black; opacity: 0.3;"></path><path transform="translate(342.08356416890047,271.7790538302278)" d="M4,0A4,4,0,1,1,-4,0A4,4,0,1,1,4,0" style="fill: black; opacity: 0.3;"></path><path transform="translate(194.7359699709724,287.97780538302277)" d="M4,0A4,4,0,1,1,-4,0A4,4,0,1,1,4,0" style="fill: black; opacity: 0.3;"></path><path transform="translate(314.572172189507,284.378082815735)" d="M4,0A4,4,0,1,1,-4,0A4,4,0,1,1,4,0" style="fill: black; opacity: 0.3;"></path><path transform="translate(251.64451273566388,284.378082815735)" d="M4,0A4,4,0,1,1,-4,0A4,4,0,1,1,4,0" style="fill: black; opacity: 0.3;"></path><path transform="translate(264.8152369988325,278.9784989648033)" d="M4,0A4,4,0,1,1,-4,0A4,4,0,1,1,4,0" style="fill: black; opacity: 0.3;"></path><path transform="translate(317.7675266573501,289.7776666666667)" d="M4,0A4,4,0,1,1,-4,0A4,4,0,1,1,4,0" style="fill: black; opacity: 0.3;"></path><path transform="translate(308.6451156070008,282.5782215320911)" d="M4,0A4,4,0,1,1,-4,0A4,4,0,1,1,4,0" style="fill: black; opacity: 0.3;"></path><path transform="translate(336.4173057819451,271.7790538302278)" d="M4,0A4,4,0,1,1,-4,0A4,4,0,1,1,4,0" style="fill: black; opacity: 0.3;"></path><path transform="translate(277.7727291190485,286.1779440993789)" d="M4,0A4,4,0,1,1,-4,0A4,4,0,1,1,4,0" style="fill: black; opacity: 0.3;"></path><path transform="translate(216.61428468324743,287.97780538302277)" d="M4,0A4,4,0,1,1,-4,0A4,4,0,1,1,4,0" style="fill: black; opacity: 0.3;"></path><path transform="translate(320.58101745329026,287.97780538302277)" d="M4,0A4,4,0,1,1,-4,0A4,4,0,1,1,4,0" style="fill: black; opacity: 0.3;"></path><path transform="translate(296.57171044532043,278.9784989648033)" d="M4,0A4,4,0,1,1,-4,0A4,4,0,1,1,4,0" style="fill: black; opacity: 0.3;"></path><path transform="translate(322.6078667220596,278.9784989648033)" d="M4,0A4,4,0,1,1,-4,0A4,4,0,1,1,4,0" style="fill: black; opacity: 0.3;"></path><path transform="translate(311.10690754406187,286.1779440993789)" d="M4,0A4,4,0,1,1,-4,0A4,4,0,1,1,4,0" style="fill: black; opacity: 0.3;"></path><path transform="translate(579.5553333333334,0)" d="M4,0A4,4,0,1,1,-4,0A4,4,0,1,1,4,0" style="fill: black; opacity: 0.3;"></path><path transform="translate(250.65711904077736,280.7783602484472)" d="M4,0A4,4,0,1,1,-4,0A4,4,0,1,1,4,0" style="fill: black; opacity: 0.3;"></path><path transform="translate(254.65731744533727,282.5782215320911)" d="M4,0A4,4,0,1,1,-4,0A4,4,0,1,1,4,0" style="fill: black; opacity: 0.3;"></path><path transform="translate(287.1927229528818,277.17863768115944)" d="M4,0A4,4,0,1,1,-4,0A4,4,0,1,1,4,0" style="fill: black; opacity: 0.3;"></path><path transform="translate(290.6736280486187,275.37877639751554)" d="M4,0A4,4,0,1,1,-4,0A4,4,0,1,1,4,0" style="fill: black; opacity: 0.3;"></path><path transform="translate(309.20902355192004,277.17863768115944)" d="M4,0A4,4,0,1,1,-4,0A4,4,0,1,1,4,0" style="fill: black; opacity: 0.3;"></path><path transform="translate(322.88579223240254,278.9784989648033)" d="M4,0A4,4,0,1,1,-4,0A4,4,0,1,1,4,0" style="fill: black; opacity: 0.3;"></path><path transform="translate(429.6865880557667,287.97780538302277)" d="M4,0A4,4,0,1,1,-4,0A4,4,0,1,1,4,0" style="fill: black; opacity: 0.3;"></path><path transform="translate(358.1709755794877,286.1779440993789)" d="M4,0A4,4,0,1,1,-4,0A4,4,0,1,1,4,0" style="fill: black; opacity: 0.3;"></path><path transform="translate(244.30008397810877,282.5782215320911)" d="M4,0A4,4,0,1,1,-4,0A4,4,0,1,1,4,0" style="fill: black; opacity: 0.3;"></path><path transform="translate(334.76383055108664,269.9791925465839)" d="M4,0A4,4,0,1,1,-4,0A4,4,0,1,1,4,0" style="fill: black; opacity: 0.3;"></path><path transform="translate(245.75942007510517,287.97780538302277)" d="M4,0A4,4,0,1,1,-4,0A4,4,0,1,1,4,0" style="fill: black; opacity: 0.3;"></path><path transform="translate(303.00735710459867,282.5782215320911)" d="M4,0A4,4,0,1,1,-4,0A4,4,0,1,1,4,0" style="fill: black; opacity: 0.3;"></path><path transform="translate(202.61380988509652,287.97780538302277)" d="M4,0A4,4,0,1,1,-4,0A4,4,0,1,1,4,0" style="fill: black; opacity: 0.3;"></path><path transform="translate(344.8759694972564,289.7776666666667)" d="M4,0A4,4,0,1,1,-4,0A4,4,0,1,1,4,0" style="fill: black; opacity: 0.3;"></path><path transform="translate(164.62111407793617,235.7818281573499)" d="M4,0A4,4,0,1,1,-4,0A4,4,0,1,1,4,0" style="fill: black; opacity: 0.3;"></path><path transform="translate(233.46150123330756,280.7783602484472)" d="M4,0A4,4,0,1,1,-4,0A4,4,0,1,1,4,0" style="fill: black; opacity: 0.3;"></path><path transform="translate(137.28023316922057,287.97780538302277)" d="M4,0A4,4,0,1,1,-4,0A4,4,0,1,1,4,0" style="fill: black; opacity: 0.3;"></path><path transform="translate(278.492005679315,282.5782215320911)" d="M4,0A4,4,0,1,1,-4,0A4,4,0,1,1,4,0" style="fill: black; opacity: 0.3;"></path><path transform="translate(280.8488423374237,286.1779440993789)" d="M4,0A4,4,0,1,1,-4,0A4,4,0,1,1,4,0" style="fill: black; opacity: 0.3;"></path><path transform="translate(194.44183130467917,255.58030227743274)" d="M4,0A4,4,0,1,1,-4,0A4,4,0,1,1,4,0" style="fill: black; opacity: 0.3;"></path><path transform="translate(301.8892899341061,280.7783602484472)" d="M4,0A4,4,0,1,1,-4,0A4,4,0,1,1,4,0" style="fill: black; opacity: 0.3;"></path><path transform="translate(310.72982840337556,278.9784989648033)" d="M4,0A4,4,0,1,1,-4,0A4,4,0,1,1,4,0" style="fill: black; opacity: 0.3;"></path><path transform="translate(251.11032078663075,287.97780538302277)" d="M4,0A4,4,0,1,1,-4,0A4,4,0,1,1,4,0" style="fill: black; opacity: 0.3;"></path><path transform="translate(278.361332203709,287.97780538302277)" d="M4,0A4,4,0,1,1,-4,0A4,4,0,1,1,4,0" style="fill: black; opacity: 0.3;"></path><path transform="translate(215.03880185139207,277.17863768115944)" d="M4,0A4,4,0,1,1,-4,0A4,4,0,1,1,4,0" style="fill: black; opacity: 0.3;"></path><path transform="translate(267.0167050415939,277.17863768115944)" d="M4,0A4,4,0,1,1,-4,0A4,4,0,1,1,4,0" style="fill: black; opacity: 0.3;"></path><path transform="translate(0,8.999306418219419)" d="M4,0A4,4,0,1,1,-4,0A4,4,0,1,1,4,0" style="fill: black; opacity: 0.3;"></path><path transform="translate(273.8550893818352,286.1779440993789)" d="M4,0A4,4,0,1,1,-4,0A4,4,0,1,1,4,0" style="fill: black; opacity: 0.3;"></path><path transform="translate(181.23024219376418,287.97780538302277)" d="M4,0A4,4,0,1,1,-4,0A4,4,0,1,1,4,0" style="fill: black; opacity: 0.3;"></path><path transform="translate(151.75230975082215,235.7818281573499)" d="M4,0A4,4,0,1,1,-4,0A4,4,0,1,1,4,0" style="fill: black; opacity: 0.3;"></path><path transform="translate(260.17832070135273,280.7783602484472)" d="M4,0A4,4,0,1,1,-4,0A4,4,0,1,1,4,0" style="fill: black; opacity: 0.3;"></path><path transform="translate(226.14176761549368,284.378082815735)" d="M4,0A4,4,0,1,1,-4,0A4,4,0,1,1,4,0" style="fill: black; opacity: 0.3;"></path><path transform="translate(353.09282482557944,289.7776666666667)" d="M4,0A4,4,0,1,1,-4,0A4,4,0,1,1,4,0" style="fill: black; opacity: 0.3;"></path><path transform="translate(115.07652848780837,190.7852960662526)" d="M4,0A4,4,0,1,1,-4,0A4,4,0,1,1,4,0" style="fill: black; opacity: 0.3;"></path><path transform="translate(279.3760926378506,286.1779440993789)" d="M4,0A4,4,0,1,1,-4,0A4,4,0,1,1,4,0" style="fill: black; opacity: 0.3;"></path><path transform="translate(293.2274800923252,286.1779440993789)" d="M4,0A4,4,0,1,1,-4,0A4,4,0,1,1,4,0" style="fill: black; opacity: 0.3;"></path><path transform="translate(291.53205646687763,275.37877639751554)" d="M4,0A4,4,0,1,1,-4,0A4,4,0,1,1,4,0" style="fill: black; opacity: 0.3;"></path><path transform="translate(242.14256123373335,284.378082815735)" d="M4,0A4,4,0,1,1,-4,0A4,4,0,1,1,4,0" style="fill: black; opacity: 0.3;"></path><path transform="translate(294.370242402559,275.37877639751554)" d="M4,0A4,4,0,1,1,-4,0A4,4,0,1,1,4,0" style="fill: black; opacity: 0.3;"></path><path transform="translate(268.8154354033925,284.378082815735)" d="M4,0A4,4,0,1,1,-4,0A4,4,0,1,1,4,0" style="fill: black; opacity: 0.3;"></path><path transform="translate(195.57200177762562,287.97780538302277)" d="M4,0A4,4,0,1,1,-4,0A4,4,0,1,1,4,0" style="fill: black; opacity: 0.3;"></path><path transform="translate(212.06226125404822,284.378082815735)" d="M4,0A4,4,0,1,1,-4,0A4,4,0,1,1,4,0" style="fill: black; opacity: 0.3;"></path><path transform="translate(278.9509583452819,286.1779440993789)" d="M4,0A4,4,0,1,1,-4,0A4,4,0,1,1,4,0" style="fill: black; opacity: 0.3;"></path><path transform="translate(326.8677038788531,271.7790538302278)" d="M4,0A4,4,0,1,1,-4,0A4,4,0,1,1,4,0" style="fill: black; opacity: 0.3;"></path><path transform="translate(409.5056724167032,248.38085714285717)" d="M4,0A4,4,0,1,1,-4,0A4,4,0,1,1,4,0" style="fill: black; opacity: 0.3;"></path><path transform="translate(322.46877091903957,284.378082815735)" d="M4,0A4,4,0,1,1,-4,0A4,4,0,1,1,4,0" style="fill: black; opacity: 0.3;"></path><path transform="translate(238.50115521175036,282.5782215320911)" d="M4,0A4,4,0,1,1,-4,0A4,4,0,1,1,4,0" style="fill: black; opacity: 0.3;"></path><path transform="translate(225.3882944761871,287.97780538302277)" d="M4,0A4,4,0,1,1,-4,0A4,4,0,1,1,4,0" style="fill: black; opacity: 0.3;"></path><path transform="translate(106.90205814016686,196.18487991718428)" d="M4,0A4,4,0,1,1,-4,0A4,4,0,1,1,4,0" style="fill: black; opacity: 0.3;"></path><path transform="translate(161.0582092676903,280.7783602484472)" d="M4,0A4,4,0,1,1,-4,0A4,4,0,1,1,4,0" style="fill: black; opacity: 0.3;"></path><path transform="translate(302.24808231668305,275.37877639751554)" d="M4,0A4,4,0,1,1,-4,0A4,4,0,1,1,4,0" style="fill: black; opacity: 0.3;"></path><path transform="translate(332.9651001892881,275.37877639751554)" d="M4,0A4,4,0,1,1,-4,0A4,4,0,1,1,4,0" style="fill: black; opacity: 0.3;"></path><path transform="translate(308.8220836376239,287.97780538302277)" d="M4,0A4,4,0,1,1,-4,0A4,4,0,1,1,4,0" style="fill: black; opacity: 0.3;"></path><path transform="translate(301.2086267428002,280.7783602484472)" d="M4,0A4,4,0,1,1,-4,0A4,4,0,1,1,4,0" style="fill: black; opacity: 0.3;"></path><path transform="translate(215.45043690542946,275.37877639751554)" d="M4,0A4,4,0,1,1,-4,0A4,4,0,1,1,4,0" style="fill: black; opacity: 0.3;"></path><path transform="translate(417.1242889678772,233.98196687370603)" d="M4,0A4,4,0,1,1,-4,0A4,4,0,1,1,4,0" style="fill: black; opacity: 0.3;"></path><path transform="translate(296.1689727643575,286.1779440993789)" d="M4,0A4,4,0,1,1,-4,0A4,4,0,1,1,4,0" style="fill: black; opacity: 0.3;"></path><path transform="translate(285.1997165439502,289.7776666666667)" d="M4,0A4,4,0,1,1,-4,0A4,4,0,1,1,4,0" style="fill: black; opacity: 0.3;"></path><path transform="translate(161.7999605995329,287.97780538302277)" d="M4,0A4,4,0,1,1,-4,0A4,4,0,1,1,4,0" style="fill: black; opacity: 0.3;"></path><path transform="translate(251.42445075292628,286.1779440993789)" d="M4,0A4,4,0,1,1,-4,0A4,4,0,1,1,4,0" style="fill: black; opacity: 0.3;"></path><path transform="translate(302.5699531254121,278.9784989648033)" d="M4,0A4,4,0,1,1,-4,0A4,4,0,1,1,4,0" style="fill: black; opacity: 0.3;"></path><path transform="translate(253.0948644793668,284.378082815735)" d="M4,0A4,4,0,1,1,-4,0A4,4,0,1,1,4,0" style="fill: black; opacity: 0.3;"></path><path transform="translate(300.47749948660385,284.378082815735)" d="M4,0A4,4,0,1,1,-4,0A4,4,0,1,1,4,0" style="fill: black; opacity: 0.3;"></path><path transform="translate(325.87693787042315,284.378082815735)" d="M4,0A4,4,0,1,1,-4,0A4,4,0,1,1,4,0" style="fill: black; opacity: 0.3;"></path><path transform="translate(299.8912456585744,284.378082815735)" d="M4,0A4,4,0,1,1,-4,0A4,4,0,1,1,4,0" style="fill: black; opacity: 0.3;"></path><path transform="translate(256.17812229679276,277.17863768115944)" d="M4,0A4,4,0,1,1,-4,0A4,4,0,1,1,4,0" style="fill: black; opacity: 0.3;"></path><path transform="translate(288.47216000585723,284.378082815735)" d="M4,0A4,4,0,1,1,-4,0A4,4,0,1,1,4,0" style="fill: black; opacity: 0.3;"></path><path transform="translate(230.1419660200536,278.9784989648033)" d="M4,0A4,4,0,1,1,-4,0A4,4,0,1,1,4,0" style="fill: black; opacity: 0.3;"></path><path transform="translate(61.6943236125141,50.396115942028985)" d="M4,0A4,4,0,1,1,-4,0A4,4,0,1,1,4,0" style="fill: black; opacity: 0.3;"></path><path transform="translate(253.33993636111146,284.378082815735)" d="M4,0A4,4,0,1,1,-4,0A4,4,0,1,1,4,0" style="fill: black; opacity: 0.3;"></path><path transform="translate(234.50210994881706,289.7776666666667)" d="M4,0A4,4,0,1,1,-4,0A4,4,0,1,1,4,0" style="fill: black; opacity: 0.3;"></path><path transform="translate(269.8548909772753,278.9784989648033)" d="M4,0A4,4,0,1,1,-4,0A4,4,0,1,1,4,0" style="fill: black; opacity: 0.3;"></path><path transform="translate(201.47104757486278,264.57960869565215)" d="M4,0A4,4,0,1,1,-4,0A4,4,0,1,1,4,0" style="fill: black; opacity: 0.3;"></path><path transform="translate(320.04760629672126,284.378082815735)" d="M4,0A4,4,0,1,1,-4,0A4,4,0,1,1,4,0" style="fill: black; opacity: 0.3;"></path><path transform="translate(163.59546634840012,271.7790538302278)" d="M4,0A4,4,0,1,1,-4,0A4,4,0,1,1,4,0" style="fill: black; opacity: 0.3;"></path><path transform="translate(310.9682621217375,273.57891511387163)" d="M4,0A4,4,0,1,1,-4,0A4,4,0,1,1,4,0" style="fill: black; opacity: 0.3;"></path><path transform="translate(226.14176761549368,282.5782215320911)" d="M4,0A4,4,0,1,1,-4,0A4,4,0,1,1,4,0" style="fill: black; opacity: 0.3;"></path><path transform="translate(216.34844209318442,278.9784989648033)" d="M4,0A4,4,0,1,1,-4,0A4,4,0,1,1,4,0" style="fill: black; opacity: 0.3;"></path><path transform="translate(368.49019087567893,287.97780538302277)" d="M4,0A4,4,0,1,1,-4,0A4,4,0,1,1,4,0" style="fill: black; opacity: 0.3;"></path><path transform="translate(269.85489097727526,284.378082815735)" d="M4,0A4,4,0,1,1,-4,0A4,4,0,1,1,4,0" style="fill: black; opacity: 0.3;"></path><path transform="translate(244.30008397810877,284.378082815735)" d="M4,0A4,4,0,1,1,-4,0A4,4,0,1,1,4,0" style="fill: black; opacity: 0.3;"></path><path transform="translate(309.74243470848904,282.5782215320911)" d="M4,0A4,4,0,1,1,-4,0A4,4,0,1,1,4,0" style="fill: black; opacity: 0.3;"></path><path transform="translate(310.24847912580293,284.378082815735)" d="M4,0A4,4,0,1,1,-4,0A4,4,0,1,1,4,0" style="fill: black; opacity: 0.3;"></path><path transform="translate(276.69327531751657,286.1779440993789)" d="M4,0A4,4,0,1,1,-4,0A4,4,0,1,1,4,0" style="fill: black; opacity: 0.3;"></path><path transform="translate(317.8003576466344,287.97780538302277)" d="M4,0A4,4,0,1,1,-4,0A4,4,0,1,1,4,0" style="fill: black; opacity: 0.3;"></path><path transform="translate(324.40659708385806,284.378082815735)" d="M4,0A4,4,0,1,1,-4,0A4,4,0,1,1,4,0" style="fill: black; opacity: 0.3;"></path><path transform="translate(401.39671110955993,287.97780538302277)" d="M4,0A4,4,0,1,1,-4,0A4,4,0,1,1,4,0" style="fill: black; opacity: 0.3;"></path><path transform="translate(273.8550893818352,282.5782215320911)" d="M4,0A4,4,0,1,1,-4,0A4,4,0,1,1,4,0" style="fill: black; opacity: 0.3;"></path><path transform="translate(191.8912955752247,287.97780538302277)" d="M4,0A4,4,0,1,1,-4,0A4,4,0,1,1,4,0" style="fill: black; opacity: 0.3;"></path><path transform="translate(283.5316596577578,278.9784989648033)" d="M4,0A4,4,0,1,1,-4,0A4,4,0,1,1,4,0" style="fill: black; opacity: 0.3;"></path><path transform="translate(291.6681372888374,289.7776666666667)" d="M4,0A4,4,0,1,1,-4,0A4,4,0,1,1,4,0" style="fill: black; opacity: 0.3;"></path><path transform="translate(325.087260275164,277.17863768115944)" d="M4,0A4,4,0,1,1,-4,0A4,4,0,1,1,4,0" style="fill: black; opacity: 0.3;"></path><path transform="translate(307.683935781719,289.7776666666667)" d="M4,0A4,4,0,1,1,-4,0A4,4,0,1,1,4,0" style="fill: black; opacity: 0.3;"></path><path transform="translate(306.72962999881565,280.7783602484472)" d="M4,0A4,4,0,1,1,-4,0A4,4,0,1,1,4,0" style="fill: black; opacity: 0.3;"></path><path transform="translate(239.8185362959762,278.9784989648033)" d="M4,0A4,4,0,1,1,-4,0A4,4,0,1,1,4,0" style="fill: black; opacity: 0.3;"></path><path transform="translate(191.73564192033368,287.97780538302277)" d="M4,0A4,4,0,1,1,-4,0A4,4,0,1,1,4,0" style="fill: black; opacity: 0.3;"></path><path transform="translate(316.9904776020748,284.378082815735)" d="M4,0A4,4,0,1,1,-4,0A4,4,0,1,1,4,0" style="fill: black; opacity: 0.3;"></path><path transform="translate(215.60350699264126,275.37877639751554)" d="M4,0A4,4,0,1,1,-4,0A4,4,0,1,1,4,0" style="fill: black; opacity: 0.3;"></path><path transform="translate(282.89494176483794,282.5782215320911)" d="M4,0A4,4,0,1,1,-4,0A4,4,0,1,1,4,0" style="fill: black; opacity: 0.3;"></path><path transform="translate(303.4195587532864,271.7790538302278)" d="M4,0A4,4,0,1,1,-4,0A4,4,0,1,1,4,0" style="fill: black; opacity: 0.3;"></path><path transform="translate(262.37978874411414,286.1779440993789)" d="M4,0A4,4,0,1,1,-4,0A4,4,0,1,1,4,0" style="fill: black; opacity: 0.3;"></path><path transform="translate(257.97685265859127,282.5782215320911)" d="M4,0A4,4,0,1,1,-4,0A4,4,0,1,1,4,0" style="fill: black; opacity: 0.3;"></path><path transform="translate(309.20902355192004,278.9784989648033)" d="M4,0A4,4,0,1,1,-4,0A4,4,0,1,1,4,0" style="fill: black; opacity: 0.3;"></path><path transform="translate(242.19776956569063,280.7783602484472)" d="M4,0A4,4,0,1,1,-4,0A4,4,0,1,1,4,0" style="fill: black; opacity: 0.3;"></path><path transform="translate(312.04720948760144,284.378082815735)" d="M4,0A4,4,0,1,1,-4,0A4,4,0,1,1,4,0" style="fill: black; opacity: 0.3;"></path><path transform="translate(322.05450469281624,287.97780538302277)" d="M4,0A4,4,0,1,1,-4,0A4,4,0,1,1,4,0" style="fill: black; opacity: 0.3;"></path></g></g></g></g></g></svg>