<?xml version="1.0" standalone="no"?>
<svg xmlns="http://www.w3.org/2000/svg" width="1120" height="572"><g transform="translate(70,20)"><g class="x axis" transform="translate(0,400)" fill="none" font-size="10" font-family="sans-serif" text-anchor="middle"><path class="domain" stroke="#000" d="M0.5,6V0.5H1000.5V6"/><g class="tick" opacity="1" transform="translate(261.904761904762,0)"><line stroke="#000" y2="6"/><text fill="#000" y="9" dy="-0.5em" style="text-anchor: end;" dx="-.8em" transform="rotate(-90)">NonResponder (n=26)</text></g><g class="tick" opacity="1" transform="translate(738.0952380952381,0)"><line stroke="#000" y2="6"/><text fill="#000" y="9" dy="-0.5em" style="text-anchor: end;" dx="-.8em" transform="rotate(-90)">Responder (n=14)</text></g></g><g class="y axis" fill="none" font-size="10" font-family="sans-serif" text-anchor="end"><path class="domain" stroke="#000" d="M-6,400.5H0.5V0.5H-6"/><g class="tick" opacity="1" transform="translate(0,400.5)"><line stroke="#000" x2="-6"/><text fill="#000" x="-9" dy="0.32em">4</text></g><g class="tick" opacity="1" transform="translate(0,350.5)"><line stroke="#000" x2="-6"/><text fill="#000" x="-9" dy="0.32em">6</text></g><g class="tick" opacity="1" transform="translate(0,300.5)"><line stroke="#000" x2="-6"/><text fill="#000" x="-9" dy="0.32em">8</text></g><g class="tick" opacity="1" transform="translate(0,250.5)"><line stroke="#000" x2="-6"/><text fill="#000" x="-9" dy="0.32em">10</text></g><g class="tick" opacity="1" transform="translate(0,200.5)"><line stroke="#000" x2="-6"/><text fill="#000" x="-9" dy="0.32em">12</text></g><g class="tick" opacity="1" transform="translate(0,150.5)"><line stroke="#000" x2="-6"/><text fill="#000" x="-9" dy="0.32em">14</text></g><g class="tick" opacity="1" transform="translate(0,100.5)"><line stroke="#000" x2="-6"/><text fill="#000" x="-9" dy="0.32em">16</text></g><g class="tick" opacity="1" transform="translate(0,50.5)"><line stroke="#000" x2="-6"/><text fill="#000" x="-9" dy="0.32em">18</text></g><g class="tick" opacity="1" transform="translate(0,0.5)"><line stroke="#000" x2="-6"/><text fill="#000" x="-9" dy="0.32em">20</text></g></g><text class="x label" text-anchor="middle" style="font: 12px sans-serif;" transform="translate(500,542)">response</text><text class="y label" text-anchor="middle" style="font: 12px sans-serif;" transform="translate(-50,200)rotate(-90)">faith_pd</text><line class="center" x1="261.904761904762" y1="350.527492315" x2="261.904761904762" y2="108.62455103499997" stroke-dasharray="2,2" stroke-width="1" stroke="black"/><line class="center" x1="738.0952380952381" y1="356.90324221000003" x2="738.0952380952381" y2="178.78451332999998" stroke-dasharray="2,2" stroke-width="1" stroke="black"/><g class="outlier" transform="translate(261.904761904762,0)"/><g class="outlier" transform="translate(738.0952380952381,0)"><circle r="4" stroke-width="1" stroke="black" stroke-opacity="0.3" fill="black" fill-opacity="0.33" cx="0" cy="0.9853382824999812"/></g><rect class="box" x="47.619047619047706" y="208.97064387125002" width="428.57142857142856" height="72.68350980874996" fill="white" stroke-width="1" stroke="black"/><rect class="box" x="523.8095238095239" y="202.98204360875" width="428.57142857142856" height="88.07321132500002" fill="white" stroke-width="1" stroke="black"/><line class="median" x1="47.619047619047706" y1="236.21912749250004" x2="476.19047619047626" y2="236.21912749250004" stroke-width="1" stroke="black"/><line class="median" x1="523.8095238095239" y1="271.61116214875" x2="952.3809523809524" y2="271.61116214875" stroke-width="1" stroke="black"/><g class="whisker" transform="translate(154.76190476190484,0)"><line class="median" x1="0" y1="350.527492315" x2="214.28571428571428" y2="350.527492315" stroke-width="1" stroke="black"/><line class="median" x1="0" y1="108.62455103499997" x2="214.28571428571428" y2="108.62455103499997" stroke-width="1" stroke="black"/></g><g class="whisker" transform="translate(630.952380952381,0)"><line class="median" x1="0" y1="356.90324221000003" x2="214.28571428571428" y2="356.90324221000003" stroke-width="1" stroke="black"/><line class="median" x1="0" y1="178.78451332999998" x2="214.28571428571428" y2="178.78451332999998" stroke-width="1" stroke="black"/></g></g></svg>