<svg xmlns="http://www.w3.org/2000/svg" preserveAspectRatio="xMinYMin meet" viewBox="-40 -10 359.2 192" style="display: inline-block; position: absolute; left: 0px; top: 0px;"><g><g font="10px sans-serif" transform="translate(0,152)"><g class="tick" style="opacity: 1;" transform="translate(35,0)"><line y2="6" x2="0" style="fill: none; stroke: black; stroke-width: 2px; shape-rendering: crispedges;"/><text dy=".71em" style="text-anchor: middle;" y="9" x="0">Axis 1 </text></g><g class="tick" style="opacity: 1;" transform="translate(95,0)"><line y2="6" x2="0" style="fill: none; stroke: black; stroke-width: 2px; shape-rendering: crispedges;"/><text dy=".71em" style="text-anchor: middle;" y="9" x="0">Axis 2 </text></g><g class="tick" style="opacity: 1;" transform="translate(155,0)"><line y2="6" x2="0" style="fill: none; stroke: black; stroke-width: 2px; shape-rendering: crispedges;"/><text dy=".71em" style="text-anchor: middle;" y="9" x="0">Axis 3 </text></g><g class="tick" style="opacity: 1;" transform="translate(215,0)"><line y2="6" x2="0" style="fill: none; stroke: black; stroke-width: 2px; shape-rendering: crispedges;"/><text dy=".71em" style="text-anchor: middle;" y="9" x="0">Axis 4 </text></g><g class="tick" style="opacity: 1;" transform="translate(275,0)"><line y2="6" x2="0" style="fill: none; stroke: black; stroke-width: 2px; shape-rendering: crispedges;"/><text dy=".71em" style="text-anchor: middle;" y="9" x="0">Axis 5 </text></g><path class="domain" d="M0,6V0H309.2V6" style="fill: none; stroke: black; stroke-width: 2px; shape-rendering: crispedges;"/></g><g font="10px sans-serif"><g class="tick" style="opacity: 1;" transform="translate(0,152)"><line x2="-6" y2="0" style="fill: none; stroke: black; stroke-width: 2px; shape-rendering: crispedges;"/><text dy=".32em" style="text-anchor: end;" x="-9" y="0">0</text></g><g class="tick" style="opacity: 1;" transform="translate(0,116.37927007032596)"><line x2="-6" y2="0" style="fill: none; stroke: black; stroke-width: 2px; shape-rendering: crispedges;"/><text dy=".32em" style="text-anchor: end;" x="-9" y="0">2</text></g><g class="tick" style="opacity: 1;" transform="translate(0,80.75854014065192)"><line x2="-6" y2="0" style="fill: none; stroke: black; stroke-width: 2px; shape-rendering: crispedges;"/><text dy=".32em" style="text-anchor: end;" x="-9" y="0">4</text></g><g class="tick" style="opacity: 1;" transform="translate(0,45.13781021097789)"><line x2="-6" y2="0" style="fill: none; stroke: black; stroke-width: 2px; shape-rendering: crispedges;"/><text dy=".32em" style="text-anchor: end;" x="-9" y="0">6</text></g><g class="tick" style="opacity: 1;" transform="translate(0,9.517080281303846)"><line x2="-6" y2="0" style="fill: none; stroke: black; stroke-width: 2px; shape-rendering: crispedges;"/><text dy=".32em" style="text-anchor: end;" x="-9" y="0">8</text></g><path class="domain" d="M-6,0H0V152H-6" style="fill: none; stroke: black; stroke-width: 2px; shape-rendering: crispedges;"/><text transform="translate(-32,76) rotate(-90)" style="text-anchor: middle;">% Variation Explained</text></g><rect dimension-index="0" fill="steelblue" x="8" width="54" y="0" height="152"/><rect dimension-index="1" fill="steelblue" x="68" width="54" y="53.600076410430184" height="98.39992358956982"/><rect dimension-index="2" fill="steelblue" x="128" width="54" y="74.63903042465145" height="77.36096957534855"/><rect dimension-index="3" fill="steelblue" x="188" width="54" y="81.96225640009004" height="70.03774359990996"/><rect dimension-index="4" fill="steelblue" x="248" width="54" y="82.64323932872531" height="69.35676067127469"/><text x="154.6" y="0" text-anchor="middle">Scree Plot</text></g></svg>